<?xml version="1.0" encoding="UTF-8" standalone="no"?>
<svg
   version="1.2"
   viewBox="0 0 1062.5 975.50255"
   id="svg2"
   width="1062.5"
   height="975.50256"
   xmlns:xlink="http://www.w3.org/1999/xlink"
   xmlns="http://www.w3.org/2000/svg"
   xmlns:svg="http://www.w3.org/2000/svg"
   xmlns:rdf="http://www.w3.org/1999/02/22-rdf-syntax-ns#"
   xmlns:cc="http://creativecommons.org/ns#"
   xmlns:dc="http://purl.org/dc/elements/1.1/">
  <metadata
     id="metadata18">
    <rdf:RDF>
      <cc:Work
         rdf:about="">
        <dc:format>image/svg+xml</dc:format>
        <dc:type
           rdf:resource="http://purl.org/dc/dcmitype/StillImage" />
      </cc:Work>
    </rdf:RDF>
  </metadata>
  <defs
     id="defs16">
    <linearGradient
       id="linearGradient874">
      <stop
         style="stop-color:#081562;stop-opacity:1;"
         offset="0"
         id="stop870" />
      <stop
         style="stop-color:#4e0808;stop-opacity:1;"
         offset="1"
         id="stop872" />
    </linearGradient>
    <linearGradient
       xlink:href="#linearGradient874"
       id="linearGradient876"
       x1="4.3000002"
       y1="99.250259"
       x2="211.8"
       y2="99.250259"
       gradientUnits="userSpaceOnUse"
       gradientTransform="matrix(5,0,0,5,-9,-8.5)" />
  </defs>
  <path
     d="m 1049.5,799.50003 c 0,92 -74,163.5 -168.5,163.5 H 180.5 c -94.5,0.5 -168,-71.5 -168,-163.5 V 177 C 12.5,85 87,12.5 182.5,12.5 h 701 c 93.5,0 166.5,72 166.5,164.5 v 622.50003 z"
     id="background"
     style="fill:url(#linearGradient876);fill-opacity:1;stroke:#000000;stroke-width:25;stroke-dasharray:none;stroke-opacity:1" />
  <g
     aria-label="Ekp"
     id="text847"
     style="font-size:533.333px;font-family:'Alex Brush';-inkscape-font-specification:'Alex Brush';fill:#ff0000;fill-opacity:0.2;stroke:#ffffff;stroke-width:5">
    <path
       d="m 110.18345,682.41785 q -10.13333,0 -17.066654,-6.93333 -6.933329,-6.93333 -6.933329,-17.06666 V 334.68473 q 0,-10.13333 6.933329,-17.06666 6.933324,-7.46666 17.066654,-7.46666 h 213.86654 q 9.59999,0 15.99999,6.93333 6.93333,6.39999 6.93333,15.99999 0,9.59999 -6.93333,15.99999 -6.4,6.39999 -15.99999,6.39999 H 134.71677 v 117.8666 H 304.85 q 9.59999,0 15.99999,6.93333 6.93333,6.39999 6.93333,15.99999 0,9.59999 -6.93333,15.99999 -6.4,6.39999 -15.99999,6.39999 H 134.71677 v 118.39993 h 189.33322 q 9.59999,0 15.99999,6.93333 6.93333,6.4 6.93333,15.99999 0,9.59999 -6.93333,15.99999 -6.4,6.4 -15.99999,6.4 z"
       style="font-family:'Varela Round';-inkscape-font-specification:'Varela Round';fill:#ffffff;fill-opacity:0.681818"
       id="E" />
    <path
       d="m 440.85018,685.08451 q -10.13333,0 -17.06665,-6.93333 -6.93333,-6.93333 -6.93333,-17.06665 V 314.9514 q 0,-10.13332 6.93333,-17.06665 6.93332,-7.46666 17.06665,-7.46666 10.13333,0 17.06666,7.46666 7.46666,6.93333 7.46666,17.06665 V 533.0846 L 592.31676,415.75134 q 7.99999,-6.93333 15.99999,-6.93333 12.26666,0 17.59999,6.93333 5.86666,6.93333 5.86666,16.53333 0,9.06666 -9.06666,18.13332 l -76.79996,68.79996 96.53328,127.99992 q 5.33333,6.93333 5.33333,14.39999 0,10.66666 -6.93333,17.06666 -6.93333,6.39999 -17.59999,6.39999 -5.33333,0 -10.66666,-2.66666 -5.33333,-2.66667 -9.06666,-7.46667 L 511.78347,550.15126 465.3835,592.28457 v 68.79996 q 0,10.13332 -7.46666,17.06665 -6.93333,6.93333 -17.06666,6.93333 z"
       style="font-family:'Varela Round';-inkscape-font-specification:'Varela Round';fill:#ffffff;fill-opacity:0.681818"
       id="K" />
    <path
       d="m 731.51669,807.7511 q -10.13333,0 -17.06666,-7.46666 -6.93333,-6.93333 -6.93333,-17.06665 V 431.75133 q 0,-10.13332 6.93333,-17.06665 6.93333,-6.93333 17.06666,-6.93333 10.13332,0 17.06665,6.93333 7.46666,6.93333 7.46666,17.06665 v 13.86666 q 38.93331,-40.53331 91.19995,-40.53331 33.06664,0 62.39996,17.06666 29.86665,16.53332 47.99997,49.06664 18.66666,31.99998 18.66666,75.19995 0,43.19997 -18.66666,75.73329 -18.13332,31.99998 -47.99997,49.06663 -29.33332,16.53333 -62.39996,16.53333 -52.26664,0 -91.19995,-40.53331 v 135.99992 q 0,10.66666 -6.93333,17.59998 -6.93332,6.93333 -17.59998,6.93333 z M 840.31662,642.41787 q 39.46664,0 63.46663,-25.06665 23.99998,-25.06665 23.99998,-70.93329 0,-45.86664 -23.99998,-70.93329 -23.99999,-25.06665 -63.46663,-25.06665 -24.53332,0 -46.39997,11.19999 -21.33332,10.66666 -37.86665,28.79998 V 602.4179 q 16.53333,18.13332 37.86665,29.33331 21.86665,10.66666 46.39997,10.66666 z"
       style="font-family:'Varela Round';-inkscape-font-specification:'Varela Round';fill:#ffffff;fill-opacity:0.681818"
       id="P" />
  </g>
</svg>
